<?xml version="1.0" standalone="no"?>
<!DOCTYPE svg PUBLIC "-//W3C//DTD SVG 20010904//EN"
 "http://www.w3.org/TR/2001/REC-SVG-20010904/DTD/svg10.dtd">
<svg version="1.0" xmlns="http://www.w3.org/2000/svg"
 width="512.000000pt" height="512.000000pt" viewBox="0 0 512.000000 512.000000"
 preserveAspectRatio="xMidYMid meet">

<g transform="translate(0.000000,512.000000) scale(0.100000,-0.100000)"
fill="#000000" stroke="none">
<path d="M2515 5071 c-29 -12 -149 -142 -235 -252 -236 -303 -395 -619 -457
-909 -26 -123 -24 -353 5 -525 50 -289 145 -637 314 -1143 l121 -362 297 0
297 0 116 347 c247 739 340 1136 341 1448 1 168 -12 248 -70 426 -88 274 -359
705 -577 917 -57 56 -106 73 -152 53z"/>
<path d="M955 2830 c-314 -49 -590 -257 -700 -528 -57 -140 -69 -320 -30 -467
20 -77 92 -224 145 -295 71 -96 190 -209 227 -216 45 -8 75 1 107 32 29 29 29
32 44 147 24 194 151 322 349 350 93 14 179 0 270 -42 66 -31 66 -31 87 -12
12 11 48 32 81 48 l60 28 288 3 289 3 -7 27 c-4 15 -49 130 -102 257 -52 126
-104 254 -115 283 -17 44 -32 62 -104 120 -158 125 -331 209 -510 247 -93 20
-294 28 -379 15z"/>
<path d="M3839 2826 c-162 -29 -314 -89 -449 -177 -138 -90 -197 -146 -219
-204 -10 -27 -62 -154 -114 -280 -53 -127 -98 -242 -102 -257 l-7 -27 289 -3
288 -3 60 -28 c33 -16 70 -38 82 -49 l23 -21 58 31 c80 43 180 59 275 45 198
-28 325 -156 349 -350 15 -117 17 -123 45 -149 64 -59 119 -46 217 54 93 95
143 162 195 261 104 201 117 432 36 633 -101 248 -340 443 -627 513 -89 22
-305 28 -399 11z"/>
<path d="M1600 1747 c-49 -16 -133 -102 -148 -153 -28 -94 -8 -169 63 -239 31
-32 65 -55 91 -63 31 -9 267 -12 956 -12 1038 0 975 -5 1051 80 90 100 90 220
0 320 -76 85 -12 80 -1057 79 -641 -1 -932 -4 -956 -12z"/>
<path d="M1626 1143 c-2 -10 -10 -44 -16 -76 -15 -75 -57 -197 -110 -321 -39
-90 -41 -102 -31 -136 23 -79 92 -105 197 -75 155 44 321 172 448 344 50 69
52 67 31 -29 -58 -262 -9 -461 157 -636 38 -40 101 -95 140 -121 60 -41 77
-48 118 -48 41 0 58 7 118 48 39 26 102 81 140 121 134 142 190 289 178 471
-3 55 -13 129 -21 165 -8 36 -14 71 -15 78 0 7 27 -22 60 -66 146 -194 357
-334 507 -336 52 -1 65 3 87 23 15 14 31 41 37 61 10 34 8 46 -31 136 -53 124
-95 246 -110 321 -6 32 -14 66 -16 76 -5 16 -58 17 -934 17 -876 0 -929 -1
-934 -17z"/>
</g>
</svg>
